<mxfile host="app.diagrams.net" modified="2023-02-09T13:32:28.179Z" agent="5.0 (Macintosh; Intel Mac OS X 10_15_7) AppleWebKit/537.36 (KHTML, like Gecko) Chrome/109.0.0.0 Safari/537.36 Edg/109.0.1518.78" etag="qrOYhJmfOfPcqhXtkjlA" version="20.8.19" type="github">
  <diagram id="C5RBs43oDa-KdzZeNtuy" name="Page-1">
    <mxGraphModel dx="1026" dy="660" grid="0" gridSize="10" guides="1" tooltips="1" connect="1" arrows="1" fold="1" page="1" pageScale="1" pageWidth="827" pageHeight="1169" math="0" shadow="0">
      <root>
        <mxCell id="WIyWlLk6GJQsqaUBKTNV-0" />
        <mxCell id="WIyWlLk6GJQsqaUBKTNV-1" parent="WIyWlLk6GJQsqaUBKTNV-0" />
        <mxCell id="vpsIqEpx9m1pF7xe3k_7-2" value="" style="edgeStyle=orthogonalEdgeStyle;rounded=0;orthogonalLoop=1;jettySize=auto;html=1;" edge="1" parent="WIyWlLk6GJQsqaUBKTNV-1" source="WIyWlLk6GJQsqaUBKTNV-3" target="vpsIqEpx9m1pF7xe3k_7-1">
          <mxGeometry relative="1" as="geometry" />
        </mxCell>
        <mxCell id="vpsIqEpx9m1pF7xe3k_7-14" value="" style="edgeStyle=orthogonalEdgeStyle;rounded=0;orthogonalLoop=1;jettySize=auto;html=1;" edge="1" parent="WIyWlLk6GJQsqaUBKTNV-1" source="WIyWlLk6GJQsqaUBKTNV-3" target="vpsIqEpx9m1pF7xe3k_7-13">
          <mxGeometry relative="1" as="geometry" />
        </mxCell>
        <mxCell id="WIyWlLk6GJQsqaUBKTNV-3" value="民宿" style="rounded=1;whiteSpace=wrap;html=1;fontSize=12;glass=0;strokeWidth=1;shadow=0;" parent="WIyWlLk6GJQsqaUBKTNV-1" vertex="1">
          <mxGeometry x="105.5" y="214" width="46" height="26" as="geometry" />
        </mxCell>
        <mxCell id="vpsIqEpx9m1pF7xe3k_7-0" value="民宿&amp;nbsp;→ 明孝陵 → 茶颜悦色(新街口) → 新街口步行街（南京知名商圈之一） → 南京市博物馆" style="text;whiteSpace=wrap;html=1;" vertex="1" parent="WIyWlLk6GJQsqaUBKTNV-1">
          <mxGeometry x="151" y="40" width="519" height="36" as="geometry" />
        </mxCell>
        <mxCell id="vpsIqEpx9m1pF7xe3k_7-4" value="" style="edgeStyle=orthogonalEdgeStyle;rounded=0;orthogonalLoop=1;jettySize=auto;html=1;" edge="1" parent="WIyWlLk6GJQsqaUBKTNV-1" source="vpsIqEpx9m1pF7xe3k_7-1" target="vpsIqEpx9m1pF7xe3k_7-3">
          <mxGeometry relative="1" as="geometry" />
        </mxCell>
        <mxCell id="vpsIqEpx9m1pF7xe3k_7-1" value="明孝陵" style="whiteSpace=wrap;html=1;rounded=1;glass=0;strokeWidth=1;shadow=0;" vertex="1" parent="WIyWlLk6GJQsqaUBKTNV-1">
          <mxGeometry x="88" y="301" width="81" height="51" as="geometry" />
        </mxCell>
        <mxCell id="vpsIqEpx9m1pF7xe3k_7-7" value="" style="edgeStyle=orthogonalEdgeStyle;rounded=0;orthogonalLoop=1;jettySize=auto;html=1;" edge="1" parent="WIyWlLk6GJQsqaUBKTNV-1" source="vpsIqEpx9m1pF7xe3k_7-3" target="vpsIqEpx9m1pF7xe3k_7-6">
          <mxGeometry relative="1" as="geometry" />
        </mxCell>
        <mxCell id="vpsIqEpx9m1pF7xe3k_7-3" value="茶颜悦色（新街口）" style="whiteSpace=wrap;html=1;rounded=1;glass=0;strokeWidth=1;shadow=0;" vertex="1" parent="WIyWlLk6GJQsqaUBKTNV-1">
          <mxGeometry x="228.5" y="301" width="81" height="51" as="geometry" />
        </mxCell>
        <mxCell id="vpsIqEpx9m1pF7xe3k_7-9" value="" style="edgeStyle=orthogonalEdgeStyle;rounded=0;orthogonalLoop=1;jettySize=auto;html=1;" edge="1" parent="WIyWlLk6GJQsqaUBKTNV-1" source="vpsIqEpx9m1pF7xe3k_7-6" target="vpsIqEpx9m1pF7xe3k_7-8">
          <mxGeometry relative="1" as="geometry" />
        </mxCell>
        <mxCell id="vpsIqEpx9m1pF7xe3k_7-6" value="新街口步行街（逛街）" style="whiteSpace=wrap;html=1;rounded=1;glass=0;strokeWidth=1;shadow=0;" vertex="1" parent="WIyWlLk6GJQsqaUBKTNV-1">
          <mxGeometry x="355.5" y="298.5" width="96.5" height="56" as="geometry" />
        </mxCell>
        <mxCell id="vpsIqEpx9m1pF7xe3k_7-11" value="" style="edgeStyle=orthogonalEdgeStyle;rounded=0;orthogonalLoop=1;jettySize=auto;html=1;" edge="1" parent="WIyWlLk6GJQsqaUBKTNV-1" source="vpsIqEpx9m1pF7xe3k_7-8" target="vpsIqEpx9m1pF7xe3k_7-10">
          <mxGeometry relative="1" as="geometry" />
        </mxCell>
        <mxCell id="vpsIqEpx9m1pF7xe3k_7-8" value="步行街找家店吃饭" style="whiteSpace=wrap;html=1;rounded=1;glass=0;strokeWidth=1;shadow=0;" vertex="1" parent="WIyWlLk6GJQsqaUBKTNV-1">
          <mxGeometry x="497" y="296.5" width="120" height="60" as="geometry" />
        </mxCell>
        <mxCell id="vpsIqEpx9m1pF7xe3k_7-16" value="" style="edgeStyle=orthogonalEdgeStyle;rounded=0;orthogonalLoop=1;jettySize=auto;html=1;" edge="1" parent="WIyWlLk6GJQsqaUBKTNV-1" source="vpsIqEpx9m1pF7xe3k_7-10" target="vpsIqEpx9m1pF7xe3k_7-15">
          <mxGeometry relative="1" as="geometry" />
        </mxCell>
        <mxCell id="vpsIqEpx9m1pF7xe3k_7-10" value="南京市博物馆" style="whiteSpace=wrap;html=1;rounded=1;glass=0;strokeWidth=1;shadow=0;" vertex="1" parent="WIyWlLk6GJQsqaUBKTNV-1">
          <mxGeometry x="502" y="210" width="110" height="48" as="geometry" />
        </mxCell>
        <mxCell id="vpsIqEpx9m1pF7xe3k_7-13" value="周一晚上预定明天8点早餐" style="whiteSpace=wrap;html=1;rounded=1;glass=0;strokeWidth=1;shadow=0;" vertex="1" parent="WIyWlLk6GJQsqaUBKTNV-1">
          <mxGeometry x="91" y="118" width="75" height="56" as="geometry" />
        </mxCell>
        <mxCell id="vpsIqEpx9m1pF7xe3k_7-15" value="找家店吃晚餐" style="whiteSpace=wrap;html=1;rounded=1;glass=0;strokeWidth=1;shadow=0;" vertex="1" parent="WIyWlLk6GJQsqaUBKTNV-1">
          <mxGeometry x="502" y="123.5" width="108" height="45" as="geometry" />
        </mxCell>
      </root>
    </mxGraphModel>
  </diagram>
</mxfile>
